<svg width="270" height="366" viewBox="0 0 270 366" fill="none" xmlns="http://www.w3.org/2000/svg">
<path d="M65.5 131C59 110.5 42.5 48 104.5 48C185.5 48 270 57.2857 270 -0.5H-0.5V263C143.5 279 72 151.5 65.5 131Z" fill="#7A9899"/>
<g filter="url(#filter0_d_0_1)">
<path d="M-1 26C10.8333 22.5 27.8 22.9 31 38.5C35 58 8.8514 96.8505 24.5 145C31 165 44.0001 184.199 77.5 195.5C111 206.801 123.828 221 133.328 240.5C142.828 260 138.855 289.5 121 310C94 341 55.5 340 -1 331.5C-1 284.5 -1 79.5 -1 26Z" fill="url(#paint0_linear_0_1)"/>
<path d="M111.328 187C123.478 187 133.328 177.15 133.328 165C133.328 152.85 123.478 143 111.328 143C99.1779 143 89.3282 152.85 89.3282 165C89.3282 177.15 99.1779 187 111.328 187Z" fill="url(#paint1_linear_0_1)"/>
</g>
<defs>
<filter id="filter0_d_0_1" x="-17" y="11.206" width="181.334" height="354.415" filterUnits="userSpaceOnUse" color-interpolation-filters="sRGB">
<feFlood flood-opacity="0" result="BackgroundImageFix"/>
<feColorMatrix in="SourceAlpha" type="matrix" values="0 0 0 0 0 0 0 0 0 0 0 0 0 0 0 0 0 0 127 0" result="hardAlpha"/>
<feOffset dx="5" dy="8"/>
<feGaussianBlur stdDeviation="10.5"/>
<feComposite in2="hardAlpha" operator="out"/>
<feColorMatrix type="matrix" values="0 0 0 0 0 0 0 0 0 0 0 0 0 0 0 0 0 0 0.42 0"/>
<feBlend mode="normal" in2="BackgroundImageFix" result="effect1_dropShadow_0_1"/>
<feBlend mode="normal" in="SourceGraphic" in2="effect1_dropShadow_0_1" result="shape"/>
</filter>
<linearGradient id="paint0_linear_0_1" x1="223" y1="188" x2="-8.00003" y2="257" gradientUnits="userSpaceOnUse">
<stop stop-color="#65BDB7"/>
<stop offset="1" stop-color="#82A3A1"/>
</linearGradient>
<linearGradient id="paint1_linear_0_1" x1="223" y1="188" x2="-8.00003" y2="257" gradientUnits="userSpaceOnUse">
<stop stop-color="#65BDB7"/>
<stop offset="1" stop-color="#82A3A1"/>
</linearGradient>
</defs>
</svg>
