<svg width="526" height="2956" viewBox="0 0 526 2956" fill="none" xmlns="http://www.w3.org/2000/svg">
<path d="M272 2956C272 2937.17 272 2857.1 272 2687.5C272 2389 272 2482.5 272 2284C272 2200.5 517 2237.17 489.5 2198.52C258.5 2230.52 133.5 2214.11 76.5 2180.5C19.5 2146.89 69.5 2082.5 244 2088C418.5 2093.5 536.5 2125.5 499.5 2172C462.5 2218.5 118.5 2246.5 62 2187C5.5 2127.5 150.5 2116.5 312 2102.5C473.5 2088.5 562.5 2151 507.5 2190C452.5 2229 156 2216 76.5 2200.5C-3 2185 5.5 2082 156 2102.5C276.4 2118.9 272.333 2062.83 272 2033C272 1990.17 272 1857.3 272 1668.5C272 1432.5 423 1513.5 423 1438C423 1377.6 378.333 1359.5 356 1358H143L151.602 1365H356C356.322 1371.17 356.673 1386.6 355.5 1399C354.327 1411.4 345.678 1423.17 341.5 1427.5C333.5 1435 323 1440.5 311 1441H270.5C214.167 1404.83 98.4 1330.5 86 1322.5C73.6 1314.5 64.1667 1322.17 61 1327L48 1347L281.5 1499.02C292.5 1508 289.5 1525 286 1531C280.177 1540.98 266.5 1549.01 249.5 1540.45C226.705 1528.98 259.5 1496.5 236 1481C211 1467 203 1492 182 1479.5C161 1467 178.5 1443 155.5 1429.5C132.937 1416.26 115 1440.5 93 1427C71 1413.5 87.5 1384.5 68.5 1372.5C52.6667 1362.5 23.6667 1385.5 17 1396.5C15.6667 1397.5 11.4 1402.4 4.99998 1414C-1.40002 1425.6 5.99998 1434.83 10.5 1438C72.8333 1477.83 201.2 1559.8 216 1569C230.8 1578.2 239.833 1570.17 242.5 1565L255 1544L21.0001 1393C15.0001 1387 6.53692 1372.31 18.5001 1357.5C29 1344.5 41.5 1343.5 52 1349.5L283 1500C282.667 1500.67 289.1 1492.3 297.5 1479.5C303.9 1466.7 294.833 1456.83 289.5 1453.5C239.667 1421.5 134.3 1353.5 111.5 1337.5C109.5 1323.5 119 1316.33 124 1314.5C197 1313.83 344.9 1312.5 352.5 1312.5C362 1312.5 371.5 1318.49 371.5 1337.5C371.5 1353.5 362.5 1356.67 357 1357.5C357 1358.83 357 1363.2 357 1370C357 1408.5 357 1406.5 343 1427C344.167 1428.17 347.1 1431.1 349.5 1433.5C366.3 1449.5 383.5 1439.17 390 1432L497 1310.5C493.167 1308 486 1302.4 488 1300C490.5 1297 523 1260 506.5 1245C490 1230 450.5 1286.5 459 1291C467.5 1295.5 509.5 1233 491.5 1222.5C473.5 1212 423 1278 431 1281.5C439 1285 494.5 1209 476 1197C457.5 1185 396 1262.5 404 1267.5C412 1272.5 478 1194.5 453.5 1176.5C429 1158.5 380 1241 385 1250C390 1259 447 1184 423 1174.5C399 1165 361.5 1223 366.5 1230.5C370.5 1236.5 385.833 1189.67 393 1165.5C376.5 1155 355.167 1184.5 346.5 1207L333.5 1197L317.5 1228C321 1228 336 1235.5 346.5 1246.5C359.676 1260.3 357 1288.5 357 1306H129.5C128.167 1294 127.9 1266 137.5 1250C149.5 1230 170.5 1228 207 1228C263.4 1227.2 273.833 1193.33 272 1176.5V734V0.5" stroke="#79C8C5" stroke-width="4" stroke-linejoin="round"/>
</svg>
