<svg width="282" height="415" viewBox="0 0 282 415" fill="none" xmlns="http://www.w3.org/2000/svg">
<path d="M120 328C15.2002 340 -3.49996 388.167 0.500035 416.5H283V111.5C224.882 111.5 225.983 155.42 226.981 195.215L227 196C228 236 251 313 120 328Z" fill="#7A9899"/>
<g filter="url(#filter0_d_0_1)">
<path d="M232.5 317C211.247 365.072 257.5 395.5 284 393V26C265.5 -1.99996 131 6 149 96.5C167 187 251.364 110.921 266.5 209C279 290 253.5 269.5 232.5 317Z" fill="url(#paint0_linear_0_1)"/>
</g>
<defs>
<filter id="filter0_d_0_1" x="124.347" y="0.702362" width="166.654" height="411.441" filterUnits="userSpaceOnUse" color-interpolation-filters="sRGB">
<feFlood flood-opacity="0" result="BackgroundImageFix"/>
<feColorMatrix in="SourceAlpha" type="matrix" values="0 0 0 0 0 0 0 0 0 0 0 0 0 0 0 0 0 0 127 0" result="hardAlpha"/>
<feOffset dx="-8" dy="4"/>
<feGaussianBlur stdDeviation="7.5"/>
<feComposite in2="hardAlpha" operator="out"/>
<feColorMatrix type="matrix" values="0 0 0 0 0 0 0 0 0 0 0 0 0 0 0 0 0 0 0.33 0"/>
<feBlend mode="normal" in2="BackgroundImageFix" result="effect1_dropShadow_0_1"/>
<feBlend mode="normal" in="SourceGraphic" in2="effect1_dropShadow_0_1" result="shape"/>
</filter>
<linearGradient id="paint0_linear_0_1" x1="213" y1="-6" x2="264" y2="367" gradientUnits="userSpaceOnUse">
<stop stop-color="#6AB4B1"/>
<stop offset="1" stop-color="#82A3A1"/>
</linearGradient>
</defs>
</svg>
