<svg width="331" height="264" viewBox="0 0 331 264" fill="none" xmlns="http://www.w3.org/2000/svg">
<path d="M40 59.9998C29.6 13.5998 12 1.66651 -1 -0.000152588V264H331C329 205 264 196 184 182C104 168 53 118 40 59.9998Z" fill="#7A9899"/>
<g filter="url(#filter0_d_0_1)">
<path d="M112 84.2536C97.6 15.4536 35 18.3332 -1 29.9999V263.5H148.5C166.962 251.5 165 217.254 134 204.254C103 191.254 55 239.254 40 192.254C25 145.254 130 170.254 112 84.2536Z" fill="url(#paint0_linear_0_1)"/>
<path d="M170 166.254C187.121 166.254 201 152.374 201 135.254C201 118.133 187.121 104.254 170 104.254C152.879 104.254 139 118.133 139 135.254C139 152.374 152.879 166.254 170 166.254Z" fill="url(#paint1_linear_0_1)"/>
</g>
<defs>
<filter id="filter0_d_0_1" x="-4" y="13.556" width="228" height="265.944" filterUnits="userSpaceOnUse" color-interpolation-filters="sRGB">
<feFlood flood-opacity="0" result="BackgroundImageFix"/>
<feColorMatrix in="SourceAlpha" type="matrix" values="0 0 0 0 0 0 0 0 0 0 0 0 0 0 0 0 0 0 127 0" result="hardAlpha"/>
<feOffset dx="10" dy="3"/>
<feGaussianBlur stdDeviation="6.5"/>
<feComposite in2="hardAlpha" operator="out"/>
<feColorMatrix type="matrix" values="0 0 0 0 0 0 0 0 0 0 0 0 0 0 0 0 0 0 0.33 0"/>
<feBlend mode="normal" in2="BackgroundImageFix" result="effect1_dropShadow_0_1"/>
<feBlend mode="normal" in="SourceGraphic" in2="effect1_dropShadow_0_1" result="shape"/>
</filter>
<linearGradient id="paint0_linear_0_1" x1="89.5" y1="25.9998" x2="89.5" y2="290.738" gradientUnits="userSpaceOnUse">
<stop stop-color="#65BDB8"/>
<stop offset="1" stop-color="#82A3A1"/>
</linearGradient>
<linearGradient id="paint1_linear_0_1" x1="89.5" y1="25.9998" x2="89.5" y2="290.738" gradientUnits="userSpaceOnUse">
<stop stop-color="#65BDB8"/>
<stop offset="1" stop-color="#82A3A1"/>
</linearGradient>
</defs>
</svg>
